<mxfile host="app.diagrams.net" agent="Mozilla/5.0 (Windows NT 10.0; Win64; x64) AppleWebKit/537.36 (KHTML, like Gecko) Chrome/127.0.0.0 Safari/537.36" version="24.7.7">
  <diagram name="Página-1" id="qnhgIkHeKlsQJzAX475X">
    <mxGraphModel dx="1221" dy="638" grid="1" gridSize="10" guides="1" tooltips="1" connect="1" arrows="1" fold="1" page="1" pageScale="1" pageWidth="827" pageHeight="1169" math="0" shadow="0">
      <root>
        <mxCell id="0" />
        <mxCell id="1" parent="0" />
        <mxCell id="JhwWu-pxIL0LbtsaLUZO-1" value="Login" style="swimlane;fontStyle=0;childLayout=stackLayout;horizontal=1;startSize=30;horizontalStack=0;resizeParent=1;resizeParentMax=0;resizeLast=0;collapsible=1;marginBottom=0;whiteSpace=wrap;html=1;" vertex="1" parent="1">
          <mxGeometry x="130" y="470" width="140" height="130" as="geometry" />
        </mxCell>
        <mxCell id="JhwWu-pxIL0LbtsaLUZO-3" value="ID&lt;div&gt;NOME&lt;/div&gt;&lt;div&gt;E-MAIL&lt;/div&gt;&lt;div&gt;SENHA&lt;/div&gt;&lt;div&gt;ADMIN&lt;/div&gt;" style="text;strokeColor=none;fillColor=none;align=left;verticalAlign=middle;spacingLeft=4;spacingRight=4;overflow=hidden;points=[[0,0.5],[1,0.5]];portConstraint=eastwest;rotatable=0;whiteSpace=wrap;html=1;" vertex="1" parent="JhwWu-pxIL0LbtsaLUZO-1">
          <mxGeometry y="30" width="140" height="100" as="geometry" />
        </mxCell>
        <mxCell id="JhwWu-pxIL0LbtsaLUZO-5" value="MATRICULA" style="swimlane;fontStyle=0;childLayout=stackLayout;horizontal=1;startSize=30;horizontalStack=0;resizeParent=1;resizeParentMax=0;resizeLast=0;collapsible=1;marginBottom=0;whiteSpace=wrap;html=1;" vertex="1" parent="1">
          <mxGeometry x="120" y="180" width="140" height="200" as="geometry" />
        </mxCell>
        <mxCell id="JhwWu-pxIL0LbtsaLUZO-6" value="ID&lt;div&gt;NOME_MATRI&lt;/div&gt;&lt;div&gt;CPF&lt;/div&gt;&lt;div&gt;RG&lt;/div&gt;&lt;div&gt;DATA-NASC&lt;/div&gt;&lt;div&gt;E-MAIL&lt;/div&gt;&lt;div&gt;TELEFONE&lt;/div&gt;&lt;div&gt;CEP&lt;/div&gt;&lt;div&gt;BAIRRO&lt;/div&gt;&lt;div&gt;ENDEREÇO&lt;/div&gt;&lt;div&gt;GENERO&lt;/div&gt;" style="text;strokeColor=none;fillColor=none;align=left;verticalAlign=middle;spacingLeft=4;spacingRight=4;overflow=hidden;points=[[0,0.5],[1,0.5]];portConstraint=eastwest;rotatable=0;whiteSpace=wrap;html=1;" vertex="1" parent="JhwWu-pxIL0LbtsaLUZO-5">
          <mxGeometry y="30" width="140" height="170" as="geometry" />
        </mxCell>
        <mxCell id="JhwWu-pxIL0LbtsaLUZO-10" value="ENTRADA" style="swimlane;fontStyle=0;childLayout=stackLayout;horizontal=1;startSize=30;horizontalStack=0;resizeParent=1;resizeParentMax=0;resizeLast=0;collapsible=1;marginBottom=0;whiteSpace=wrap;html=1;" vertex="1" parent="1">
          <mxGeometry x="414" y="60" width="140" height="140" as="geometry" />
        </mxCell>
        <mxCell id="JhwWu-pxIL0LbtsaLUZO-11" value="ID&lt;div&gt;ID_PRODUTO&lt;/div&gt;&lt;div&gt;QUATIDADE&lt;/div&gt;&lt;div&gt;CATEGORIA&lt;/div&gt;&lt;div&gt;DATA_ENTRADA&lt;/div&gt;&lt;div&gt;VALOR_UNI&amp;nbsp;&lt;/div&gt;&lt;div&gt;&lt;br&gt;&lt;/div&gt;" style="text;strokeColor=none;fillColor=none;align=left;verticalAlign=middle;spacingLeft=4;spacingRight=4;overflow=hidden;points=[[0,0.5],[1,0.5]];portConstraint=eastwest;rotatable=0;whiteSpace=wrap;html=1;" vertex="1" parent="JhwWu-pxIL0LbtsaLUZO-10">
          <mxGeometry y="30" width="140" height="110" as="geometry" />
        </mxCell>
        <mxCell id="JhwWu-pxIL0LbtsaLUZO-14" value="SAIDA" style="swimlane;fontStyle=0;childLayout=stackLayout;horizontal=1;startSize=30;horizontalStack=0;resizeParent=1;resizeParentMax=0;resizeLast=0;collapsible=1;marginBottom=0;whiteSpace=wrap;html=1;" vertex="1" parent="1">
          <mxGeometry x="414" y="440" width="140" height="160" as="geometry" />
        </mxCell>
        <mxCell id="JhwWu-pxIL0LbtsaLUZO-15" value="ID&lt;div&gt;ID_PRODUTO&lt;/div&gt;&lt;div&gt;QUATIDADE&lt;/div&gt;&lt;div&gt;CATEGORIA&lt;/div&gt;&lt;div&gt;DATA_SAIDA&lt;/div&gt;&lt;div&gt;VALOR_UNI&amp;nbsp;&lt;/div&gt;&lt;div&gt;VALOR_TOTAL&lt;/div&gt;&lt;div&gt;&lt;br&gt;&lt;/div&gt;" style="text;strokeColor=none;fillColor=none;align=left;verticalAlign=middle;spacingLeft=4;spacingRight=4;overflow=hidden;points=[[0,0.5],[1,0.5]];portConstraint=eastwest;rotatable=0;whiteSpace=wrap;html=1;" vertex="1" parent="JhwWu-pxIL0LbtsaLUZO-14">
          <mxGeometry y="30" width="140" height="130" as="geometry" />
        </mxCell>
        <mxCell id="JhwWu-pxIL0LbtsaLUZO-18" value="PRODUTO" style="swimlane;fontStyle=0;childLayout=stackLayout;horizontal=1;startSize=30;horizontalStack=0;resizeParent=1;resizeParentMax=0;resizeLast=0;collapsible=1;marginBottom=0;whiteSpace=wrap;html=1;" vertex="1" parent="1">
          <mxGeometry x="414" y="260" width="140" height="100" as="geometry">
            <mxRectangle x="620" y="70" width="100" height="30" as="alternateBounds" />
          </mxGeometry>
        </mxCell>
        <mxCell id="JhwWu-pxIL0LbtsaLUZO-19" value="ID&lt;div&gt;NOME&lt;/div&gt;&lt;div&gt;ID_ENTRADA&lt;/div&gt;&lt;div&gt;ID_SAIDA&lt;/div&gt;" style="text;strokeColor=none;fillColor=none;align=left;verticalAlign=middle;spacingLeft=4;spacingRight=4;overflow=hidden;points=[[0,0.5],[1,0.5]];portConstraint=eastwest;rotatable=0;whiteSpace=wrap;html=1;" vertex="1" parent="JhwWu-pxIL0LbtsaLUZO-18">
          <mxGeometry y="30" width="140" height="70" as="geometry" />
        </mxCell>
        <mxCell id="JhwWu-pxIL0LbtsaLUZO-22" style="edgeStyle=orthogonalEdgeStyle;rounded=0;orthogonalLoop=1;jettySize=auto;html=1;" edge="1" parent="1" source="JhwWu-pxIL0LbtsaLUZO-11" target="JhwWu-pxIL0LbtsaLUZO-18">
          <mxGeometry relative="1" as="geometry" />
        </mxCell>
        <mxCell id="JhwWu-pxIL0LbtsaLUZO-23" style="edgeStyle=orthogonalEdgeStyle;rounded=0;orthogonalLoop=1;jettySize=auto;html=1;entryX=0.433;entryY=-0.024;entryDx=0;entryDy=0;entryPerimeter=0;" edge="1" parent="1" source="JhwWu-pxIL0LbtsaLUZO-19" target="JhwWu-pxIL0LbtsaLUZO-14">
          <mxGeometry relative="1" as="geometry" />
        </mxCell>
        <mxCell id="JhwWu-pxIL0LbtsaLUZO-24" style="edgeStyle=orthogonalEdgeStyle;rounded=0;orthogonalLoop=1;jettySize=auto;html=1;entryX=1.033;entryY=0.33;entryDx=0;entryDy=0;entryPerimeter=0;" edge="1" parent="1" source="JhwWu-pxIL0LbtsaLUZO-15" target="JhwWu-pxIL0LbtsaLUZO-3">
          <mxGeometry relative="1" as="geometry" />
        </mxCell>
        <mxCell id="JhwWu-pxIL0LbtsaLUZO-25" style="edgeStyle=orthogonalEdgeStyle;rounded=0;orthogonalLoop=1;jettySize=auto;html=1;" edge="1" parent="1" source="JhwWu-pxIL0LbtsaLUZO-6" target="JhwWu-pxIL0LbtsaLUZO-1">
          <mxGeometry relative="1" as="geometry" />
        </mxCell>
      </root>
    </mxGraphModel>
  </diagram>
</mxfile>
